<svg width="40" height="40" viewBox="0 0 40 40" fill="none" xmlns="http://www.w3.org/2000/svg">
<g id="Frame 137">
<circle id="Ellipse" cx="20" cy="20" r="20" fill="black"/>
<path id="Vector" d="M14.9404 12.999C14.9402 13.5295 14.7292 14.0381 14.3539 14.413C13.9787 14.7879 13.4699 14.9983 12.9394 14.998C12.409 14.9978 11.9004 14.7868 11.5255 14.4116C11.1506 14.0363 10.9402 13.5275 10.9404 12.997C10.9407 12.4666 11.1517 11.958 11.5269 11.5831C11.9022 11.2082 12.411 10.9978 12.9414 10.998C13.4719 10.9983 13.9805 11.2093 14.3554 11.5845C14.7302 11.9598 14.9407 12.4686 14.9404 12.999ZM15.0004 16.479H11.0004V28.999H15.0004V16.479ZM21.3204 16.479H17.3404V28.999H21.2804V22.429C21.2804 18.769 26.0504 18.429 26.0504 22.429V28.999H30.0004V21.069C30.0004 14.899 22.9404 15.129 21.2804 18.159L21.3204 16.479Z" fill="white"/>
</g>
</svg>
